<svg width="22" height="19" viewBox="0 0 22 19" fill="none" xmlns="http://www.w3.org/2000/svg">
<path d="M11 0.927307C6 0.927307 1.73 4.58357 0 9.74466C1.73 14.9057 6 18.562 11 18.562C16 18.562 20.27 14.9057 22 9.74466C20.27 4.58357 16 0.927307 11 0.927307ZM11 15.6229C8.24 15.6229 6 12.9894 6 9.74466C6 6.49987 8.24 3.86642 11 3.86642C13.76 3.86642 16 6.49987 16 9.74466C16 12.9894 13.76 15.6229 11 15.6229ZM11 6.21772C9.34 6.21772 8 7.79308 8 9.74466C8 11.6962 9.34 13.2716 11 13.2716C12.66 13.2716 14 11.6962 14 9.74466C14 7.79308 12.66 6.21772 11 6.21772Z" fill="black" fill-opacity="0.54"/>
</svg>
